<svg width="683" height="637" viewBox="0 0 683 637" fill="none" xmlns="http://www.w3.org/2000/svg">
<g clip-path="url(#clip0_6713_489)">
<path d="M438.631 575.177L436.955 550.513C425.978 544.706 413.826 541.823 401.557 542.113C418.819 556.232 417.436 584.451 429.391 603.763C433.163 609.756 438.161 614.774 444.015 618.445C449.869 622.116 456.429 624.346 463.208 624.97L477.574 633.716C479.218 622.222 478.487 610.489 475.432 599.323C472.377 588.157 467.071 577.825 459.879 569.038C455.799 564.151 451.153 559.828 446.051 556.169C442.911 565.709 438.631 575.177 438.631 575.177Z" fill="#F2F2F2"/>
<path d="M353.059 637H681.947C682.226 637 682.494 636.882 682.692 636.673C682.889 636.464 683 636.181 683 635.885C683 635.589 682.889 635.306 682.692 635.097C682.494 634.888 682.226 634.77 681.947 634.77H353.059C352.78 634.77 352.512 634.888 352.314 635.097C352.116 635.306 352.005 635.589 352.005 635.885C352.005 636.181 352.116 636.464 352.314 636.673C352.512 636.882 352.78 637 353.059 637Z" fill="#CCCCCC"/>
<path d="M143.66 370.843V371.32H143.974C143.86 371.168 143.755 371.009 143.66 370.843ZM146.078 168.497C124.125 198.709 112.242 235.761 112.283 273.871C112.288 279.674 112.557 285.396 113.089 291.036C113.171 292.004 113.267 292.973 113.39 293.928C116.441 321.973 125.963 348.795 141.118 372.029C141.705 372.94 142.306 373.836 142.908 374.733C149.432 384.412 156.88 393.354 165.135 401.42C231.585 466.349 335.196 461.982 396.556 391.666C397.499 390.611 398.401 389.54 399.289 388.47C424.404 358.372 438.853 319.973 440.161 279.846C441.47 239.718 429.558 200.356 406.464 168.497C405.766 167.529 405.056 166.56 404.318 165.605C402.701 163.451 401.025 161.339 399.289 159.272C398.401 158.201 397.499 157.131 396.556 156.076C381.236 138.493 362.637 124.463 341.933 114.871C321.23 105.278 298.872 100.332 276.271 100.345C274.7 100.345 273.142 100.374 271.583 100.417C270.545 100.446 269.506 100.49 268.468 100.547C245.205 101.716 222.446 108.124 201.71 119.343C180.974 130.562 162.739 146.334 148.224 165.605C147.486 166.56 146.776 167.529 146.078 168.497ZM143.974 371.32C143.86 371.168 143.755 371.009 143.66 370.843V371.32H143.974Z" fill="white"/>
<path d="M142.512 369.065L142.976 368.067L177.769 293.928V293.913L179.122 291.036V291.021L236.6 168.497V168.483L237.953 165.605L237.966 165.591L267.074 103.512L268.468 100.548C269.507 100.49 270.546 100.446 271.584 100.417L270.204 103.367L241.014 165.591V165.605L239.661 168.483V168.497L180.68 294.217L180.667 294.231L145.874 368.428L144.507 371.32L144.288 371.798L142.908 374.733C142.307 373.836 141.705 372.94 141.118 372.029L142.512 369.065Z" fill="#3F3D56"/>
<path d="M180.092 291.036V293.928H113.39C113.267 292.973 113.171 292.004 113.089 291.036H180.092Z" fill="#3F3D56"/>
<path d="M283.751 313.596V310.704H350.453C350.576 311.658 350.672 312.627 350.754 313.596H283.751Z" fill="#3F3D56"/>
<path d="M339.542 303.52H342.275V374.101C341.373 374.232 340.458 374.333 339.542 374.42V303.52Z" fill="#3F3D56"/>
<path d="M406.463 168.497C405.766 167.528 405.056 166.56 404.318 165.605H399.289V159.271C398.401 158.201 397.499 157.131 396.556 156.076V165.605H148.223C147.485 166.56 146.775 167.528 146.078 168.497H396.556V391.666C397.499 390.611 398.401 389.54 399.289 388.47V168.497H406.463Z" fill="#3F3D56"/>
<path d="M397.922 368.427H143.656V371.319H397.922V368.427Z" fill="#3F3D56"/>
<path d="M143.66 370.843V371.32H143.974C143.86 371.168 143.755 371.009 143.66 370.843ZM146.078 168.497C124.125 198.709 112.242 235.761 112.283 273.871C112.288 279.674 112.557 285.396 113.089 291.036C113.171 292.004 113.267 292.973 113.39 293.928C116.441 321.973 125.963 348.795 141.118 372.029C141.705 372.94 142.306 373.836 142.908 374.733C149.432 384.412 156.88 393.354 165.135 401.42C231.585 466.349 335.196 461.982 396.556 391.666C397.499 390.611 398.401 389.54 399.289 388.47C424.404 358.372 438.853 319.973 440.161 279.846C441.47 239.718 429.558 200.356 406.464 168.497C405.766 167.529 405.056 166.56 404.318 165.605C402.701 163.451 401.025 161.339 399.289 159.272C398.401 158.201 397.499 157.131 396.556 156.076C381.236 138.493 362.637 124.463 341.933 114.871C321.23 105.278 298.872 100.332 276.271 100.345C274.7 100.345 273.142 100.374 271.583 100.417C270.545 100.446 269.506 100.49 268.468 100.547C245.205 101.716 222.446 108.124 201.71 119.343C180.974 130.562 162.739 146.334 148.224 165.605C147.486 166.56 146.776 167.529 146.078 168.497ZM116.137 293.928C116.014 292.973 115.919 292.004 115.823 291.036C111.657 247.115 123.736 203.195 149.522 168.497C150.246 167.528 150.971 166.56 151.722 165.605C165.846 147.376 183.389 132.446 203.244 121.758C223.099 111.07 244.834 104.857 267.074 103.512C268.112 103.454 269.151 103.396 270.203 103.367C272.212 103.28 274.235 103.237 276.271 103.237C298.996 103.223 321.467 108.306 342.2 118.152C362.934 127.997 381.459 142.382 396.556 160.356C397.499 161.455 398.414 162.554 399.289 163.682C399.822 164.318 400.327 164.955 400.82 165.605C401.571 166.56 402.295 167.528 403.02 168.497C425.997 199.367 438.179 237.695 437.499 276.983C436.819 316.271 423.319 354.102 399.289 384.06C398.414 385.188 397.499 386.287 396.556 387.386C388.235 397.278 378.853 406.11 368.6 413.704C295.722 467.676 195.294 448.914 144.288 371.797C144.179 371.638 144.069 371.479 143.974 371.32C143.86 371.168 143.755 371.009 143.66 370.843C143.263 370.25 142.881 369.657 142.512 369.064C128.157 346.617 119.111 320.848 116.137 293.928ZM143.974 371.32C143.86 371.168 143.755 371.009 143.66 370.843V371.32H143.974Z" fill="#CCCCCC"/>
<path d="M465.137 460.25H301.53C299.529 460.248 297.611 459.406 296.197 457.909C294.782 456.412 293.987 454.383 293.984 452.266V367.911C293.987 365.794 294.782 363.765 296.197 362.268C297.611 360.771 299.529 359.929 301.53 359.927H465.137C467.137 359.929 469.055 360.771 470.47 362.268C471.884 363.765 472.68 365.794 472.682 367.911V452.266C472.68 454.383 471.884 456.412 470.47 457.909C469.055 459.406 467.137 460.248 465.137 460.25Z" fill="#CACACA"/>
<path d="M393.071 453.463C357.24 453.463 319.878 453.101 305.938 452.866C304.104 452.826 302.357 452.028 301.071 450.644C299.785 449.26 299.061 447.399 299.054 445.458V367.917C299.054 367.222 299.315 366.556 299.779 366.064C300.243 365.571 300.872 365.294 301.529 365.291H465.132C465.788 365.292 466.418 365.568 466.883 366.059C467.348 366.55 467.611 367.215 467.613 367.91V420.52C467.582 429.108 464.372 437.341 458.671 443.453C452.97 449.565 445.232 453.069 437.117 453.214C424.125 453.393 408.741 453.463 393.071 453.463Z" fill="#E4E4E4"/>
<path d="M448.246 413.765H315.126C314.263 413.764 313.421 413.481 312.716 412.955C312.011 412.428 311.476 411.684 311.185 410.824L296.118 366.095C295.893 365.428 295.823 364.713 295.914 364.011C296.004 363.308 296.253 362.639 296.639 362.06C297.024 361.48 297.536 361.007 298.13 360.68C298.724 360.353 299.384 360.182 300.054 360.181L466.456 359.936H466.461C467.154 359.936 467.835 360.117 468.445 360.465C469.055 360.812 469.573 361.314 469.955 361.926C470.336 362.538 470.567 363.24 470.629 363.97C470.691 364.699 470.58 365.434 470.307 366.107L452.092 411.082C451.77 411.879 451.234 412.558 450.55 413.035C449.866 413.512 449.065 413.766 448.246 413.765Z" fill="#CACACA"/>
<path d="M353.71 444.766H307.807C306.677 444.764 305.594 444.288 304.795 443.442C303.997 442.596 303.548 441.449 303.548 440.253C303.548 439.057 303.997 437.91 304.795 437.064C305.594 436.218 306.677 435.742 307.807 435.74H353.71C354.84 435.742 355.923 436.218 356.722 437.064C357.52 437.91 357.969 439.057 357.969 440.253C357.969 441.449 357.52 442.596 356.722 443.442C355.923 444.288 354.84 444.764 353.71 444.766Z" fill="#CACACA"/>
<path d="M383.085 424.796C388.842 424.796 393.509 419.857 393.509 413.765C393.509 407.674 388.842 402.735 383.085 402.735C377.328 402.735 372.661 407.674 372.661 413.765C372.661 419.857 377.328 424.796 383.085 424.796Z" fill="#3F3D56"/>
<path d="M52.6942 22.8082C78.3072 3.72147 110.037 -3.81699 140.902 1.85121C171.768 7.5194 199.242 25.9299 217.279 53.0327C254.84 109.471 292.53 257.468 265.925 343.203C186.568 254.504 64.6517 245.287 24.1311 196.966C-19.1666 145.333 -0.642119 62.5543 52.6942 22.8082Z" fill="#29EA4D"/>
<path d="M122.311 150.61C143.587 150.61 160.834 132.36 160.834 109.847C160.834 87.3341 143.587 69.0839 122.311 69.0839C101.036 69.0839 83.7891 87.3341 83.7891 109.847C83.7891 132.36 101.036 150.61 122.311 150.61Z" fill="white"/>
<path d="M298.49 387.596C312.425 387.596 323.721 375.643 323.721 360.897C323.721 346.152 312.425 334.198 298.49 334.198C284.555 334.198 273.258 346.152 273.258 360.897C273.258 375.643 284.555 387.596 298.49 387.596Z" fill="#29EA4D"/>
<path opacity="0.2" d="M81.0972 100.441C78.5465 105.064 76.8812 110.173 76.1964 115.477C75.5116 120.78 75.8207 126.175 77.1061 131.352C78.3916 136.529 80.6281 141.388 83.688 145.651C86.7479 149.913 90.5713 153.496 94.9399 156.196C99.3085 158.895 104.137 160.657 109.149 161.381C114.161 162.106 119.259 161.779 124.152 160.419C129.044 159.059 133.636 156.692 137.664 153.454C141.693 150.216 145.079 146.17 147.63 141.548C140.754 147.931 131.955 151.516 122.809 151.662C113.664 151.808 104.767 148.505 97.7124 142.344C90.6577 136.183 85.9053 127.567 84.3058 118.037C82.7062 108.507 84.3639 98.6858 88.9822 90.3311C85.8557 93.2289 83.1929 96.6431 81.0972 100.441Z" fill="#231F20"/>
<path opacity="0.2" d="M24.0585 197.158C64.5791 245.479 186.495 254.696 265.853 343.395C268.329 335.283 270.236 326.988 271.556 318.579C192.239 237.944 77.1097 227.753 37.9594 181.066C2.91927 139.28 8.37382 77.0993 39.9972 33.8333C-3.37377 76.3751 -15.6197 149.842 24.0585 197.158Z" fill="#231F20"/>
<path d="M527.724 367.886L511.365 362.613C504.244 371.698 498.339 398.017 498.339 398.017L475.949 436.516C474.751 437.118 473.724 438.043 472.971 439.199C472.218 440.354 471.766 441.699 471.661 443.098C471.555 444.497 471.8 445.901 472.37 447.168C472.94 448.435 473.816 449.521 474.909 450.316C476.002 451.112 477.273 451.588 478.596 451.698C479.918 451.808 481.244 451.547 482.441 450.943C483.638 450.338 484.663 449.41 485.413 448.252C486.163 447.095 486.612 445.749 486.715 444.349L520.601 400.818L527.724 367.886Z" fill="#FFB6B6"/>
<path d="M527.41 372.087L530.434 345.882L523.657 333.906C522.319 331.56 520.387 329.657 518.08 328.412C515.773 327.167 513.183 326.63 510.602 326.86C507.106 327.198 503.862 328.928 501.525 331.701C499.188 334.473 497.933 338.081 498.014 341.794C498.269 353.057 499.945 367.3 506.489 371.192L506.556 371.232L527.41 372.087Z" fill="#29EA4D"/>
<path d="M573.625 608.873L563.816 613.883L540.882 576.228L555.361 568.833L573.625 608.873Z" fill="#FFB6B6"/>
<path d="M578.911 619.525L548.744 634.934L548.56 634.531C547.057 631.235 546.852 627.443 547.991 623.988C549.13 620.534 551.519 617.699 554.633 616.108L558.126 608.869L570.426 608.041L573.059 606.696L578.911 619.525Z" fill="#2F2E41"/>
<path d="M500.602 622.91L489.71 622.909L484.527 578.448L500.605 578.448L500.602 622.91Z" fill="#FFB6B6"/>
<path d="M500.986 634.934L467.488 634.933V634.485C467.489 630.826 468.862 627.317 471.307 624.729C473.753 622.142 477.069 620.688 480.527 620.688H480.527L486.646 615.776L498.063 620.689L500.987 620.689L500.986 634.934Z" fill="#2F2E41"/>
<path d="M489.806 416.706L477.323 507.793L480.72 519.778L476.263 528.267L482.809 592.156L480.152 598.346L487.576 603.191H502.684L503.485 535.703L507.217 525.795V520.334L514.814 479.181L516.567 543.245L518.992 548.195C528.026 569.885 540.196 576.987 548.8 593.199L563.908 584.54L563.592 578.082C566.627 576.456 559.035 571.703 558.305 568.187L556.984 561.892L548.171 542.574L547.834 535.771L550.246 489.501L549.111 427.193L529.294 411.158L489.806 416.706Z" fill="#2F2E41"/>
<path d="M509.42 306.224C520.261 306.224 529.048 296.925 529.048 285.454C529.048 273.983 520.261 264.684 509.42 264.684C498.58 264.684 489.792 273.983 489.792 285.454C489.792 296.925 498.58 306.224 509.42 306.224Z" fill="#FFB6B6"/>
<path d="M480.418 456L480.132 455.894L483.931 442.829C483.432 441.146 483.337 439.358 483.654 437.626C483.97 435.894 484.689 434.272 485.745 432.907C485.13 431.782 482.597 426.467 486.722 421.952C486.476 420.635 485.235 412.843 489.564 409.033C489.564 409.033 497.964 341.666 502.675 323.871C502.812 322.569 501.709 311.94 508.046 311.524C511.388 311.304 516.403 310.968 523.93 310.455C524.902 310.381 525.472 312.118 526.335 314.946C526.92 316.859 523.913 319.474 524.64 319.43L524.692 319.427L524.741 319.441C531.763 321.433 537.922 325.922 542.183 332.154C546.445 338.386 548.549 345.981 548.141 353.661L545.904 393.914C546.242 395.533 553.369 441.435 551.506 446.363C550.449 449.158 552.251 450.899 553.567 452.171C554.244 452.826 554.734 453.299 554.666 453.816C554.638 453.959 554.578 454.091 554.489 454.202C554.4 454.313 554.287 454.398 554.158 454.45C552.968 455.08 553.626 459.399 554.32 461.973L554.391 462.236L554.161 462.361C553.896 462.505 532.596 452.168 506.72 452.167C496.967 452.167 491.329 460.027 480.418 456Z" fill="#29EA4D"/>
<path d="M524.975 298.224C524.771 298.113 524.591 297.958 524.448 297.768C524.304 297.579 524.2 297.36 524.141 297.125L523.862 295.92L524.722 296.868C525.182 296.465 525.534 295.941 525.741 295.348C525.949 294.755 526.005 294.115 525.904 293.491C525.803 292.868 525.549 292.284 525.167 291.798C524.785 291.312 524.288 290.942 523.727 290.724C523.349 290.59 522.96 290.49 522.566 290.425C522.154 290.355 521.747 290.251 521.35 290.115C520.422 289.69 519.621 289.004 519.034 288.132C518.448 287.259 518.098 286.234 518.023 285.166C517.895 283.284 518.092 281.393 518.605 279.585C509.944 280.993 501.113 280.712 492.547 278.756C491.227 278.461 489.963 277.935 488.807 277.2C486.692 275.872 484.931 273.997 483.69 271.751C483.526 271.448 483.458 271.098 483.495 270.751C483.533 270.404 483.675 270.079 483.9 269.823C484.056 269.645 484.245 269.502 484.455 269.404C484.666 269.306 484.893 269.255 485.123 269.254L484.809 268.356C484.711 268.075 484.685 267.772 484.734 267.477C484.783 267.183 484.904 266.907 485.087 266.678C485.269 266.45 485.505 266.276 485.771 266.176C486.038 266.075 486.324 266.051 486.602 266.106L487.713 266.326L487.606 265.545C487.567 265.254 487.599 264.956 487.701 264.683C487.803 264.409 487.97 264.168 488.187 263.984C488.403 263.799 488.661 263.678 488.936 263.631C489.21 263.585 489.492 263.615 489.752 263.719C489.99 263.814 490.245 263.853 490.499 263.833C490.753 263.814 491 263.736 491.223 263.606C491.446 263.476 491.639 263.296 491.79 263.079C491.941 262.862 492.046 262.613 492.098 262.349L492.48 260.386L492.518 260.282C494.398 256.969 498.008 254.56 502.425 253.674C506.363 252.884 510.384 253.283 514.273 253.669C515.923 253.704 517.543 254.137 519.01 254.935C519.675 255.341 520.22 255.933 520.584 256.647C520.949 257.361 521.119 258.169 521.076 258.979C524.905 257.733 529.014 260.215 531.046 263.343C533.462 267.063 533.852 271.73 533.922 275.38C534.089 284.008 532.409 291.067 528.93 296.361C528.432 297.26 527.678 297.969 526.776 298.387C526.546 298.469 526.306 298.51 526.063 298.509C525.684 298.511 525.31 298.413 524.975 298.224Z" fill="#2F2E41"/>
<path d="M525.681 380.002L511.274 370.252C502.1 376.967 489.701 400.622 489.701 400.622L458.322 431.298C457.015 431.536 455.79 432.133 454.77 433.031C453.751 433.928 452.972 435.094 452.514 436.411C452.056 437.728 451.933 439.15 452.159 440.533C452.385 441.916 452.951 443.211 453.801 444.289C454.65 445.367 455.753 446.189 456.998 446.673C458.243 447.156 459.587 447.284 460.894 447.043C462.2 446.803 463.424 446.202 464.442 445.302C465.459 444.402 466.235 443.234 466.69 441.916L510.422 409.678L525.681 380.002Z" fill="#FFB6B6"/>
<path d="M524.307 383.958L533.903 359.589L530.432 346.122C529.742 343.481 528.367 341.097 526.463 339.239C524.559 337.381 522.202 336.124 519.659 335.609C516.206 334.936 512.641 335.675 509.684 337.677C506.727 339.679 504.598 342.795 503.729 346.394C501.101 357.311 499.083 371.504 504.391 377.121L504.444 377.178L524.307 383.958Z" fill="#29EA4D"/>
</g>
<defs>
<clipPath id="clip0_6713_489">
<rect width="683" height="637" fill="white"/>
</clipPath>
</defs>
</svg>
